<svg id="Layer_1" data-name="Layer 1" xmlns="http://www.w3.org/2000/svg" viewBox="0 0 250 64"><defs><style>.cls-1{fill:#333;}</style></defs><title>sharebucks_logo_gray</title><path class="cls-1" d="M50.42,42.35a14.34,14.34,0,0,1-4.53-.69,8.82,8.82,0,0,1-3.24-1.75,1.3,1.3,0,0,1-.43-1.16,1.49,1.49,0,0,1,.68-1.08,2,2,0,0,1,1.38-.43,1.9,1.9,0,0,1,1.17.56,5.77,5.77,0,0,0,1.91,1.14,7.82,7.82,0,0,0,2.92.53,6.41,6.41,0,0,0,3.1-.61,1.88,1.88,0,0,0,1.1-1.57,1.92,1.92,0,0,0-1-1.67,10.21,10.21,0,0,0-3.77-1.15,11.69,11.69,0,0,1-5.12-1.92A3.88,3.88,0,0,1,43,29.41a3.73,3.73,0,0,1,1-2.71,6.48,6.48,0,0,1,2.7-1.6,11.18,11.18,0,0,1,3.43-.53,11.5,11.5,0,0,1,4.09.68,6.92,6.92,0,0,1,2.84,1.85,1.42,1.42,0,0,1,.45,1.08,1.22,1.22,0,0,1-.59.94,1.86,1.86,0,0,1-1.33.23,2.63,2.63,0,0,1-1.3-.58,4.83,4.83,0,0,0-1.89-1.06,8.65,8.65,0,0,0-2.34-.29,6.34,6.34,0,0,0-2.61.48,1.53,1.53,0,0,0-1.07,1.41,1.68,1.68,0,0,0,.34,1,2.79,2.79,0,0,0,1.31.84,19.25,19.25,0,0,0,2.87.72,16.8,16.8,0,0,1,4.15,1.21,5.5,5.5,0,0,1,2.18,1.72A3.86,3.86,0,0,1,58,37.1a4.42,4.42,0,0,1-.86,2.65,5.79,5.79,0,0,1-2.52,1.89A10.66,10.66,0,0,1,50.42,42.35Z"/><path class="cls-1" d="M64.07,35.85a1.8,1.8,0,0,1-1.27-.47,1.52,1.52,0,0,1-.51-1.17V18.84a1.48,1.48,0,0,1,.51-1.18,1.83,1.83,0,0,1,1.27-.45,1.85,1.85,0,0,1,1.3.45,1.53,1.53,0,0,1,.49,1.18V34.21a1.57,1.57,0,0,1-.49,1.17A1.82,1.82,0,0,1,64.07,35.85Zm0,6.4a1.79,1.79,0,0,1-1.27-.46,1.52,1.52,0,0,1-.51-1.17V26.33a1.49,1.49,0,0,1,.51-1.18,1.83,1.83,0,0,1,1.27-.45,1.85,1.85,0,0,1,1.3.45,1.54,1.54,0,0,1,.49,1.18V40.62a1.57,1.57,0,0,1-.49,1.17A1.81,1.81,0,0,1,64.07,42.25Zm14.39,0a1.81,1.81,0,0,1-1.28-.46,1.52,1.52,0,0,1-.51-1.17V32.74a5.46,5.46,0,0,0-.73-3,4.44,4.44,0,0,0-2-1.71,6.78,6.78,0,0,0-2.85-.56,6.35,6.35,0,0,0-2.66.54,4.85,4.85,0,0,0-1.89,1.46,3.34,3.34,0,0,0-.7,2.1H63.65A6.33,6.33,0,0,1,64.72,28a7.55,7.55,0,0,1,2.92-2.51,9.19,9.19,0,0,1,4.17-.93,9.59,9.59,0,0,1,4.32.95,7.12,7.12,0,0,1,3,2.77,8.46,8.46,0,0,1,1.1,4.48v7.88a1.54,1.54,0,0,1-.5,1.17A1.83,1.83,0,0,1,78.46,42.25Z"/><path class="cls-1" d="M94,42.35a9,9,0,0,1-4.59-1.17A8.69,8.69,0,0,1,86.21,38,8.84,8.84,0,0,1,85,33.48a8.32,8.32,0,0,1,1.27-4.55,9.12,9.12,0,0,1,3.47-3.19,10.27,10.27,0,0,1,4.92-1.17,10.17,10.17,0,0,1,4.9,1.17A9.11,9.11,0,0,1,103,28.93a8.24,8.24,0,0,1,1.28,4.55H103A8.75,8.75,0,0,1,101.78,38a8.61,8.61,0,0,1-3.2,3.17A9,9,0,0,1,94,42.35Zm.7-2.88a6.41,6.41,0,0,0,3.18-.79,5.9,5.9,0,0,0,2.21-2.14,6.31,6.31,0,0,0,0-6.15,5.85,5.85,0,0,0-2.21-2.15,6.85,6.85,0,0,0-6.35,0,5.84,5.84,0,0,0-3.06,5.24,5.8,5.8,0,0,0,.82,3.06,5.91,5.91,0,0,0,2.24,2.14A6.45,6.45,0,0,0,94.7,39.47Zm7.84,2.78a1.81,1.81,0,0,1-1.28-.46,1.52,1.52,0,0,1-.51-1.17v-4.9l.67-3.4,2.9,1.16v7.14a1.52,1.52,0,0,1-.51,1.17A1.79,1.79,0,0,1,102.54,42.25Z"/><path class="cls-1" d="M111.22,42.22a1.91,1.91,0,0,1-1.3-.4,1.53,1.53,0,0,1-.45-1.2V26.3a1.53,1.53,0,0,1,.45-1.18,2.28,2.28,0,0,1,2.61,0,1.56,1.56,0,0,1,.44,1.2V40.62a1.55,1.55,0,0,1-.44,1.18A1.82,1.82,0,0,1,111.22,42.22Zm0-10.95a6.09,6.09,0,0,1,1-3.45A7.29,7.29,0,0,1,115,25.41a8.27,8.27,0,0,1,3.85-.9,6.26,6.26,0,0,1,3.13.62c.69.42,1,.92.79,1.49a1.2,1.2,0,0,1-.41.69,1.47,1.47,0,0,1-.68.31,2.21,2.21,0,0,1-.84,0,10.93,10.93,0,0,0-4-.06A5.62,5.62,0,0,0,114,28.83a3.19,3.19,0,0,0-1,2.44Z"/><path class="cls-1" d="M133.9,42.35a11.33,11.33,0,0,1-5.17-1.14,8.76,8.76,0,0,1-3.53-3.14,8.34,8.34,0,0,1-1.28-4.59,8.74,8.74,0,0,1,1.21-4.63,8.43,8.43,0,0,1,3.34-3.14,10.24,10.24,0,0,1,4.9-1.14,9.38,9.38,0,0,1,4.69,1.11,7.36,7.36,0,0,1,3,3,9.34,9.34,0,0,1,1,4.47,1.32,1.32,0,0,1-.46,1,1.71,1.71,0,0,1-1.15.4H126.37V32h14l-1.43.89a6.46,6.46,0,0,0-.7-2.86,5.15,5.15,0,0,0-1.89-2,5.7,5.7,0,0,0-3-.73,6.75,6.75,0,0,0-3.41.8,5.27,5.27,0,0,0-2.15,2.19,6.67,6.67,0,0,0-.74,3.16,5.69,5.69,0,0,0,.88,3.14,6.12,6.12,0,0,0,2.41,2.17,7.51,7.51,0,0,0,3.54.8A7.88,7.88,0,0,0,138,38.38a2,2,0,0,1,1.13-.37,1.64,1.64,0,0,1,1.07.33,1.49,1.49,0,0,1,.63,1.06,1.09,1.09,0,0,1-.56,1,9.82,9.82,0,0,1-3,1.41A11.24,11.24,0,0,1,133.9,42.35Z"/><path class="cls-1" d="M156.09,42.35a10.14,10.14,0,0,1-4.9-1.17A8.94,8.94,0,0,1,147.76,38a8.6,8.6,0,0,1-1.3-4.55V18.84a1.48,1.48,0,0,1,.51-1.18,2.06,2.06,0,0,1,2.57,0,1.5,1.5,0,0,1,.49,1.18v8.65a8.84,8.84,0,0,1,3-2.13,9.54,9.54,0,0,1,8.38.38,8.68,8.68,0,0,1,4.38,7.7A8.33,8.33,0,0,1,164.47,38,9.07,9.07,0,0,1,161,41.18,10.23,10.23,0,0,1,156.09,42.35Zm0-2.88a6.41,6.41,0,0,0,3.18-.79,5.94,5.94,0,0,0,3-5.24,5.76,5.76,0,0,0-.83-3.07,5.9,5.9,0,0,0-2.22-2.13,6.85,6.85,0,0,0-6.35,0,5.69,5.69,0,0,0-2.22,2.13,5.84,5.84,0,0,0-.81,3.07,6,6,0,0,0,.81,3.08,5.63,5.63,0,0,0,2.22,2.16A6.45,6.45,0,0,0,156.09,39.47Z"/><path class="cls-1" d="M178.94,42.38a9.59,9.59,0,0,1-4.32-.94,7.19,7.19,0,0,1-3-2.77,8.52,8.52,0,0,1-1.1-4.49V26.3a1.51,1.51,0,0,1,.5-1.17,2,2,0,0,1,2.56,0,1.52,1.52,0,0,1,.51,1.17v7.88a5.46,5.46,0,0,0,.73,3,4.43,4.43,0,0,0,2,1.73,6.78,6.78,0,0,0,2.83.56,6.35,6.35,0,0,0,2.68-.54,4.83,4.83,0,0,0,1.87-1.47,3.38,3.38,0,0,0,.7-2.09h2.21A6.34,6.34,0,0,1,186,38.92a7.41,7.41,0,0,1-2.91,2.53A9.12,9.12,0,0,1,178.94,42.38Zm7.74-.16a1.81,1.81,0,0,1-1.28-.46,1.52,1.52,0,0,1-.51-1.17V26.3a1.49,1.49,0,0,1,.51-1.18,2.06,2.06,0,0,1,2.57,0,1.51,1.51,0,0,1,.49,1.18V40.59a1.53,1.53,0,0,1-.49,1.17A1.8,1.8,0,0,1,186.68,42.22Z"/><path class="cls-1" d="M203.27,42.35a10.41,10.41,0,0,1-5-1.17A8.9,8.9,0,0,1,194.85,38a8.42,8.42,0,0,1-1.24-4.53,8.5,8.5,0,0,1,4.58-7.77,10.24,10.24,0,0,1,4.9-1.14,9.65,9.65,0,0,1,3.78.72A9,9,0,0,1,210,27.46a1.08,1.08,0,0,1,.35,1.05,1.63,1.63,0,0,1-.77,1,1.38,1.38,0,0,1-1.08.21,2.16,2.16,0,0,1-1.09-.56,5.88,5.88,0,0,0-4.27-1.66,6.44,6.44,0,0,0-3.15.75,5.38,5.38,0,0,0-2.13,2.1,6.18,6.18,0,0,0-.77,3.17,6,6,0,0,0,.78,3.07A5.75,5.75,0,0,0,200,38.68a6.58,6.58,0,0,0,3.26.79,7.38,7.38,0,0,0,2.15-.28,5.22,5.22,0,0,0,1.7-.85,2.23,2.23,0,0,1,1.15-.46,1.48,1.48,0,0,1,1,.3,1.53,1.53,0,0,1,.67,1,1.16,1.16,0,0,1-.42,1A9.38,9.38,0,0,1,203.27,42.35Z"/><path class="cls-1" d="M217.16,42.22a1.75,1.75,0,0,1-1.24-.43,1.46,1.46,0,0,1-.47-1.14V18.78a1.46,1.46,0,0,1,.47-1.14,2,2,0,0,1,2.48,0,1.47,1.47,0,0,1,.48,1.14V40.65a1.47,1.47,0,0,1-.48,1.14A1.75,1.75,0,0,1,217.16,42.22Zm1.65-6.41-2.17-2.17,10.74-8.78a1.64,1.64,0,0,1,2.28.1,1.35,1.35,0,0,1,.45,1.05,1.44,1.44,0,0,1-.56,1Zm10.85,6.25a1.83,1.83,0,0,1-1.25.37,1.6,1.6,0,0,1-1.13-.56l-7.11-8,2.45-2.11,7.28,8.19a1.44,1.44,0,0,1,.4,1.11A1.47,1.47,0,0,1,229.66,42.06Z"/><path class="cls-1" d="M242.15,42.35a14.34,14.34,0,0,1-4.53-.69,8.82,8.82,0,0,1-3.24-1.75,1.31,1.31,0,0,1-.44-1.16,1.56,1.56,0,0,1,.68-1.08,1.89,1.89,0,0,1,2.56.13,5.67,5.67,0,0,0,1.91,1.14,7.79,7.79,0,0,0,2.92.53,6.44,6.44,0,0,0,3.1-.61,1.88,1.88,0,0,0,1.1-1.57,1.93,1.93,0,0,0-1-1.67,10.15,10.15,0,0,0-3.76-1.15,11.69,11.69,0,0,1-5.13-1.92,3.9,3.9,0,0,1-1.59-3.14,3.73,3.73,0,0,1,1.05-2.71,6.48,6.48,0,0,1,2.7-1.6,11.14,11.14,0,0,1,3.43-.53,11.5,11.5,0,0,1,4.09.68,6.88,6.88,0,0,1,2.83,1.85,1.43,1.43,0,0,1,.46,1.08,1.22,1.22,0,0,1-.59.94,1.86,1.86,0,0,1-1.33.23,2.63,2.63,0,0,1-1.3-.58,4.83,4.83,0,0,0-1.89-1.06,8.73,8.73,0,0,0-2.35-.29,6.32,6.32,0,0,0-2.6.48,1.53,1.53,0,0,0-1.07,1.41,1.74,1.74,0,0,0,.33,1,2.84,2.84,0,0,0,1.31.84,19.93,19.93,0,0,0,2.87.72,16.67,16.67,0,0,1,4.15,1.21A5.47,5.47,0,0,1,249,34.84a3.93,3.93,0,0,1,.66,2.26,4.41,4.41,0,0,1-.85,2.65,5.79,5.79,0,0,1-2.52,1.89A10.66,10.66,0,0,1,242.15,42.35Z"/><path class="cls-1" d="M10.32,35.44a3.58,3.58,0,0,1,1.45,3.72,4.18,4.18,0,0,1-5.15,2.67,4,4,0,0,1-2.8-2.56,3.83,3.83,0,0,1,1.25-3.72,4.88,4.88,0,0,1,2.25-.91.51.51,0,0,0,.33-.27c.51-1,1-2,1.51-3l2.37-4.62,2.12-4.09a3.83,3.83,0,0,1,.28-.42.73.73,0,0,0,0-1A3.2,3.2,0,0,1,13.78,18a4.15,4.15,0,0,1,4.46-2.11,3.62,3.62,0,0,1,2.86,5.34.79.79,0,0,0,0,.81c.87,1.69,1.72,3.39,2.59,5.09.71,1.4,1.43,2.79,2.16,4.19.53,1,1.08,2,1.65,3a.77.77,0,0,0,.49.29,3.78,3.78,0,0,1,3,2.25,3.55,3.55,0,0,1-2.67,4.92,4.15,4.15,0,0,1-4.63-1.71,3.32,3.32,0,0,1,.2-3.85,5.28,5.28,0,0,0,.61-.72.47.47,0,0,0,0-.4C24,34,23.32,32.75,22.68,31.54l-.15-.33c-.59-1.2-1.18-2.4-1.78-3.59-.71-1.4-1.45-2.79-2.15-4.2a.45.45,0,0,0-.54-.27,2.12,2.12,0,0,1-.83,0c-.48-.11-.65.12-.84.51-.77,1.56-1.58,3.11-2.37,4.66l-2.07,4C11.42,33.38,10.87,34.4,10.32,35.44Z"/></svg>